<svg id="Layer_1" data-name="Layer 1" xmlns="http://www.w3.org/2000/svg" xmlns:xlink="http://www.w3.org/1999/xlink" viewBox="0 0 306.22 256.9"><defs><style>.cls-1,.cls-16,.cls-17{fill:none;}.cls-2{clip-path:url(#clip-path);}.cls-3{fill:#b3d4ff;}.cls-4{fill:#60a1ff;}.cls-5{fill:#15749f;}.cls-6{fill:#fff;}.cls-7{fill:#ff8d7f;}.cls-8{fill:#ffd094;}.cls-9{clip-path:url(#clip-path-2);}.cls-10{fill:#e5ecf6;}.cls-11{fill:#636efa;}.cls-12{fill:#858585;}.cls-13{fill:#ef553b;}.cls-14{fill:#00cc96;}.cls-15{fill:#999;}.cls-16,.cls-17{stroke:#000;}.cls-16{stroke-width:4px;}.cls-17{stroke-miterlimit:10;stroke-width:0.2px;}.cls-18{opacity:0.1;}.cls-19{clip-path:url(#clip-path-3);}</style><clipPath id="clip-path" transform="translate(-47.31 -29.38)"><rect class="cls-1" x="7.3" y="121.81" width="222.11" height="163.51"/></clipPath><clipPath id="clip-path-2" transform="translate(-47.31 -29.38)"><rect class="cls-1" x="25.49" y="28.48" width="212.58" height="70.8"/></clipPath><clipPath id="clip-path-3" transform="translate(-47.31 -29.38)"><rect class="cls-1" x="203.73" y="28.48" width="212.58" height="70.8"/></clipPath></defs><g class="cls-2"><path class="cls-3" d="M119.37,219.54a14.58,14.58,0,0,0,1.82-1.6,15.38,15.38,0,0,0,1.55-1.87,16,16,0,0,0,2.17-4.38,17.65,17.65,0,0,0,.56-2.39,16.9,16.9,0,0,0,0-4.92,17.65,17.65,0,0,0-.56-2.39,16,16,0,0,0-2.17-4.38,15.42,15.42,0,0,0-3.37-3.47,15.84,15.84,0,0,0-2-1.29,16.47,16.47,0,0,0-2.21-.94,15.53,15.53,0,0,0-2.33-.57,14.52,14.52,0,0,0-2.38-.2V154.52c1.33,0,2.66,0,4,.16s2.64.27,4,.48,2.62.48,3.91.8,2.58.69,3.84,1.12,2.51.89,3.74,1.42,2.44,1.1,3.62,1.72,2.34,1.29,3.48,2,2.24,1.47,3.31,2.28,2.12,1.65,3.13,2.54,2,1.82,2.93,2.79,1.84,2,2.71,3,1.68,2.12,2.46,3.22,1.52,2.25,2.22,3.42,1.34,2.36,1.95,3.59,1.16,2.46,1.67,3.73,1,2.55,1.38,3.85.77,2.62,1.08,4,.57,2.67.78,4,.36,2.71.46,4.08.16,2.73.16,4.1-.05,2.74-.16,4.11-.26,2.72-.46,4.08-.47,2.69-.78,4-.67,2.65-1.08,3.95-.88,2.59-1.38,3.85-1.07,2.51-1.67,3.74-1.26,2.41-1.95,3.58-1.43,2.31-2.22,3.42-1.6,2.18-2.46,3.22-1.77,2.05-2.71,3-1.92,1.9-2.93,2.79-2,1.74-3.13,2.54Z" transform="translate(-47.31 -29.38)"/><path class="cls-4" d="M110.42,191.14c-.3,0-.6,0-.89,0l-.9.08c-.29,0-.59.08-.89.14s-.58.11-.87.19-.58.15-.87.24l-.85.29-.83.35q-.42.18-.81.39c-.27.14-.53.29-.79.45s-.51.32-.76.49-.49.35-.73.53l-.7.58q-.34.3-.66.63t-.63.66c-.2.22-.4.45-.59.69s-.37.48-.55.73-.34.51-.5.77-.32.52-.47.79-.28.54-.41.82-.25.56-.37.84-.22.58-.32.87-.19.58-.27.88-.15.6-.21.9-.12.6-.17.9-.09.62-.11.92,0,.62-.07.92,0,.62,0,.93,0,.61,0,.92a9.24,9.24,0,0,0,.1.92c0,.31.09.61.14.91s.13.61.21.9a9,9,0,0,0,.25.89L62.14,223c-.31-1-.59-2-.84-3s-.48-2-.67-3-.36-2-.5-3-.24-2-.32-3.06-.13-2-.15-3.08,0-2.06,0-3.08.11-2.06.21-3.08.22-2,.38-3.05.34-2,.55-3,.46-2,.73-3,.57-2,.9-2.94.68-1.93,1.06-2.88.79-1.89,1.22-2.81.9-1.84,1.39-2.74,1-1.77,1.53-2.64,1.1-1.71,1.69-2.55,1.2-1.64,1.83-2.43,1.29-1.57,2-2.33,1.38-1.49,2.1-2.2,1.45-1.4,2.21-2.07,1.54-1.31,2.33-1.93,1.61-1.21,2.44-1.79,1.67-1.11,2.53-1.63,1.74-1,2.62-1.48,1.79-.91,2.71-1.32,1.84-.79,2.77-1.15,1.88-.68,2.84-1,1.91-.57,2.88-.81,2-.45,2.93-.63,2-.33,3-.45,2-.21,3-.27,2-.09,3-.09Z" transform="translate(-47.31 -29.38)"/><path class="cls-5" d="M95.94,211.69q.14.44.3.87c.11.29.23.57.35.85s.26.56.4.83.29.54.45.8.32.52.49.78.35.5.53.74.38.48.58.71.4.45.61.67.43.43.66.63.45.41.68.6l.72.55.75.5c.26.17.52.32.78.46s.53.29.81.42.54.25.82.36l.85.31.86.26q.44.12.87.21c.29.06.59.11.89.15s.59.08.89.1.59,0,.89,0h.9l.9-.07c.29,0,.59-.07.88-.12s.59-.1.89-.17.58-.14.87-.22l.85-.28q.42-.15.84-.33c.28-.12.55-.24.82-.38s.53-.27.79-.42.52-.31.77-.48.5-.34.74-.52l20.89,29.63c-.8.61-1.63,1.18-2.47,1.74s-1.69,1.08-2.56,1.58-1.76,1-2.65,1.43-1.81.87-2.73,1.26-1.85.76-2.79,1.1-1.9.64-2.86.92-1.92.53-2.9.75-2,.41-2.94.57-2,.29-3,.39-2,.17-3,.21-2,.05-3,0-2-.07-3-.15-2-.19-3-.33-2-.31-3-.51-2-.43-2.92-.69-1.92-.55-2.87-.87-1.88-.66-2.81-1-1.85-.78-2.75-1.21-1.8-.89-2.68-1.37-1.74-1-2.59-1.54-1.69-1.09-2.51-1.68-1.61-1.2-2.4-1.84-1.54-1.29-2.29-2-1.47-1.38-2.18-2.11-1.38-1.47-2-2.24-1.3-1.56-1.92-2.37-1.21-1.63-1.78-2.47-1.11-1.7-1.63-2.58-1-1.77-1.49-2.67-.91-1.83-1.33-2.76-.81-1.88-1.17-2.84-.7-1.92-1-2.9Z" transform="translate(-47.31 -29.38)"/><rect class="cls-6" x="143.96" y="125.14" width="34.27" height="21.91"/></g><path d="M74.72,185v3.66h-.28V185Z" transform="translate(-47.31 -29.38)"/><path d="M75.59,186.67V186h.24a4.25,4.25,0,0,1,0,.5.84.84,0,0,1,.85-.56c.45,0,.85.26.85,1v1.7h-.25V187c0-.47-.19-.77-.63-.77-.61,0-.82.51-.82,1.08v1.34h-.25Z" transform="translate(-47.31 -29.38)"/><path d="M78.36,187.91a.67.67,0,0,0,.72.54c.45,0,.63-.21.63-.51s-.12-.44-.69-.58-.81-.37-.81-.71.26-.7.83-.7a.81.81,0,0,1,.89.73h-.25a.6.6,0,0,0-.65-.49c-.44,0-.57.23-.57.43s.13.37.63.49c.72.18.89.42.89.81s-.37.77-.91.77a.88.88,0,0,1-1-.78Z" transform="translate(-47.31 -29.38)"/><path d="M80.22,186h.47v-.81h.25V186h.61v.25h-.61V188c0,.29.06.46.31.46a1.22,1.22,0,0,0,.26,0v.23a.81.81,0,0,1-.31,0c-.33,0-.51-.17-.51-.59v-1.82h-.47Z" transform="translate(-47.31 -29.38)"/><path d="M83.81,188.13a4.19,4.19,0,0,0,0,.5H83.6a1.67,1.67,0,0,1,0-.4.83.83,0,0,1-.83.46.76.76,0,0,1-.84-.78c0-.58.43-.84,1.19-.84h.48v-.27c0-.26-.07-.61-.65-.61a.56.56,0,0,0-.65.49H82a.8.8,0,0,1,.9-.73c.58,0,.91.25.91.83Zm-.25-.84h-.5c-.56,0-.92.16-.92.61a.54.54,0,0,0,.59.55c.73,0,.83-.5.83-1.06Z" transform="translate(-47.31 -29.38)"/><path d="M86.58,188.45c0,.84-.36,1.28-1.09,1.28a.9.9,0,0,1-1-.78h.26a.7.7,0,0,0,.75.53c.66,0,.84-.44.84-1.1v-.27a.81.81,0,0,1-.85.52c-.59,0-1-.5-1-1.31s.49-1.37,1.09-1.37a.77.77,0,0,1,.81.46c0-.15,0-.33,0-.4h.24c0,.1,0,.51,0,.76Zm-1.87-1.14c0,.62.32,1.07.81,1.07s.82-.43.82-1.11-.2-1.07-.81-1.07S84.71,186.71,84.71,187.31Z" transform="translate(-47.31 -29.38)"/><path d="M87.41,186.72V186h.25c0,.09,0,.25,0,.59a1,1,0,0,1,.88-.65v.28a.94.94,0,0,0-.88,1v1.36h-.26Z" transform="translate(-47.31 -29.38)"/><path d="M90.72,188.13a4.19,4.19,0,0,0,0,.5h-.24a1.67,1.67,0,0,1-.05-.4.83.83,0,0,1-.83.46.77.77,0,0,1-.85-.78c0-.58.44-.84,1.2-.84h.48v-.27c0-.26-.07-.61-.65-.61a.56.56,0,0,0-.65.49h-.25a.8.8,0,0,1,.9-.73c.58,0,.91.25.91.83Zm-.25-.84H90c-.57,0-.92.16-.92.61a.54.54,0,0,0,.59.55c.73,0,.83-.5.83-1.06Z" transform="translate(-47.31 -29.38)"/><path d="M91.55,186.69V186h.25c0,.09,0,.32,0,.47a.79.79,0,0,1,.76-.53.71.71,0,0,1,.73.52.88.88,0,0,1,.83-.52c.39,0,.8.23.8,1v1.72h-.25v-1.69c0-.35-.13-.73-.6-.73s-.71.41-.71.91v1.51h-.25v-1.69c0-.38-.11-.73-.58-.73s-.73.45-.73,1v1.44h-.26Z" transform="translate(-47.31 -29.38)"/><path d="M83,194.91v-1H81.41v-.26l1.6-2.22h.27v2.23h.45l0,.25h-.41v1Zm0-2.26c0-.19,0-.62,0-.85-.14.25-.94,1.35-1.32,1.9H83Z" transform="translate(-47.31 -29.38)"/><path d="M84.28,193v-.68h.25c0,.09,0,.32,0,.47a.8.8,0,0,1,.76-.53.72.72,0,0,1,.74.52.87.87,0,0,1,.83-.52c.39,0,.79.23.79,1v1.72h-.25v-1.69c0-.35-.12-.73-.59-.73s-.72.4-.72.91v1.51h-.25v-1.69c0-.38-.11-.73-.58-.73s-.73.45-.73,1v1.44h-.26Z" transform="translate(-47.31 -29.38)"/><path d="M131.6,200.76l-1-3.66h.28c.24.88.78,2.91.86,3.33h0c.06-.34.65-2.36.9-3.33h.3c.23.9.8,3.05.86,3.33h0c.12-.52.71-2.46,1-3.33h.27L134,200.76h-.32c-.23-.86-.79-3-.85-3.29h0c-.09.47-.64,2.38-.9,3.29Z" transform="translate(-47.31 -29.38)"/><path d="M135.8,196.91v1.68a.89.89,0,0,1,.84-.51c.36,0,.86.19.86,1v1.66h-.25v-1.61c0-.52-.23-.81-.66-.81s-.79.32-.79,1v1.46h-.25v-3.85Z" transform="translate(-47.31 -29.38)"/><path d="M140,200.27a2.39,2.39,0,0,0,0,.49h-.25a1.81,1.81,0,0,1,0-.4.83.83,0,0,1-.83.47.78.78,0,0,1-.85-.79c0-.57.43-.84,1.2-.84h.48v-.26c0-.26-.08-.61-.66-.61s-.59.27-.64.49h-.26a.81.81,0,0,1,.91-.74c.58,0,.9.26.9.83Zm-.25-.84h-.49c-.57,0-.92.15-.92.6a.54.54,0,0,0,.59.56c.72,0,.82-.5.82-1.07Z" transform="translate(-47.31 -29.38)"/><path d="M140.47,198.15h.47v-.82h.26v.82h.6v.24h-.6v1.7c0,.3.06.47.3.47a.84.84,0,0,0,.27,0v.23a.83.83,0,0,1-.32.05c-.32,0-.51-.17-.51-.59v-1.82h-.47Z" transform="translate(-47.31 -29.38)"/><path d="M142.41,200a.68.68,0,0,0,.72.55c.45,0,.63-.22.63-.51s-.12-.45-.69-.59-.82-.36-.82-.71.27-.7.84-.7a.82.82,0,0,1,.89.74h-.25a.61.61,0,0,0-.65-.49c-.44,0-.57.22-.57.43s.13.36.63.49c.71.17.89.42.89.81s-.37.77-.91.77a.89.89,0,0,1-1-.79Z" transform="translate(-47.31 -29.38)"/><path d="M146.42,200.27a2.39,2.39,0,0,0,0,.49h-.24a1.58,1.58,0,0,1-.05-.4.83.83,0,0,1-.83.47.78.78,0,0,1-.85-.79c0-.57.44-.84,1.2-.84h.48v-.26c0-.26-.08-.61-.66-.61s-.58.27-.64.49h-.25a.8.8,0,0,1,.9-.74c.58,0,.9.26.9.83Zm-.24-.84h-.5c-.57,0-.92.15-.92.6a.54.54,0,0,0,.59.56c.72,0,.83-.5.83-1.07Z" transform="translate(-47.31 -29.38)"/><path d="M147.51,200.38v1.43h-.25v-3c0-.21,0-.44,0-.64h.25c0,.1,0,.25,0,.47a.93.93,0,0,1,.9-.54c.6,0,1,.52,1,1.31,0,.94-.48,1.44-1.1,1.44A.84.84,0,0,1,147.51,200.38Zm1.65-1c0-.61-.29-1.06-.79-1.06s-.87.39-.87,1.11.2,1.13.83,1.13S149.16,200.12,149.16,199.4Z" transform="translate(-47.31 -29.38)"/><path d="M150.31,200.38v1.43h-.25v-3c0-.21,0-.44,0-.64h.25c0,.1,0,.25,0,.47a.93.93,0,0,1,.9-.54c.6,0,1,.52,1,1.31,0,.94-.49,1.44-1.1,1.44A.84.84,0,0,1,150.31,200.38Zm1.64-1c0-.61-.28-1.06-.78-1.06s-.87.39-.87,1.11.19,1.13.83,1.13S152,200.12,152,199.4Z" transform="translate(-47.31 -29.38)"/><path d="M138.37,204.37a.92.92,0,0,1,1-.83.85.85,0,0,1,.94.86.71.71,0,0,1-.47.72h0a.87.87,0,0,1,.62.9,1.1,1.1,0,0,1-2.18.16h.26a.82.82,0,0,0,.84.67.75.75,0,0,0,.8-.82c0-.55-.35-.77-.84-.77h-.2V205h.16c.5,0,.73-.22.73-.63a.6.6,0,0,0-.67-.61.68.68,0,0,0-.72.58Z" transform="translate(-47.31 -29.38)"/><path d="M141.16,205.1c0-.22,0-.47,0-.67h.25a3.29,3.29,0,0,1,0,.46.8.8,0,0,1,.76-.53.73.73,0,0,1,.74.52.87.87,0,0,1,.83-.52c.39,0,.8.23.8,1V207h-.26v-1.69c0-.35-.12-.73-.59-.73s-.72.41-.72.92V207h-.25v-1.68c0-.38-.11-.74-.58-.74s-.73.45-.73,1V207h-.25Z" transform="translate(-47.31 -29.38)"/><path d="M95.06,234.47h1.18a1.63,1.63,0,0,1,1.65,1.8,1.68,1.68,0,0,1-1.65,1.86H95.06Zm.28,3.4h.86c.94,0,1.4-.68,1.4-1.59a1.39,1.39,0,0,0-1.4-1.55h-.86Z" transform="translate(-47.31 -29.38)"/><path d="M98.63,234.27h.26v.51h-.26Zm0,1.24h.26v2.62h-.26Z" transform="translate(-47.31 -29.38)"/><path d="M99.69,237.41a.67.67,0,0,0,.72.54c.46,0,.64-.21.64-.5s-.12-.45-.69-.59-.82-.37-.82-.71.26-.7.84-.7a.82.82,0,0,1,.89.73H101a.59.59,0,0,0-.64-.49c-.44,0-.57.23-.57.44s.12.36.62.48c.72.18.9.42.9.81s-.38.77-.91.77a.89.89,0,0,1-1-.78Z" transform="translate(-47.31 -29.38)"/><path d="M103.82,237.36a1,1,0,0,1-1,.83c-.63,0-1.09-.48-1.09-1.36,0-.71.37-1.38,1.12-1.38a.92.92,0,0,1,1,.84h-.26a.7.7,0,0,0-.7-.59c-.54,0-.85.47-.85,1.12s.29,1.13.82,1.13a.73.73,0,0,0,.73-.59Z" transform="translate(-47.31 -29.38)"/><path d="M106.49,236.82a1.22,1.22,0,0,1-1.15,1.37c-.69,0-1.11-.58-1.11-1.37s.4-1.37,1.13-1.37S106.49,236,106.49,236.82Zm-2,0c0,.63.32,1.13.86,1.13s.86-.47.86-1.13-.31-1.12-.87-1.12S104.5,236.19,104.5,236.82Z" transform="translate(-47.31 -29.38)"/><path d="M107.11,236.23v-.72h.25c0,.09,0,.26,0,.59a1,1,0,0,1,.88-.65v.28a.94.94,0,0,0-.88,1v1.36h-.26Z" transform="translate(-47.31 -29.38)"/><path d="M110.68,234.27v3.11c0,.25,0,.49,0,.75h-.25c0-.06,0-.31,0-.44a.84.84,0,0,1-.86.5c-.66,0-1-.55-1-1.34s.43-1.4,1.12-1.4a.79.79,0,0,1,.79.39v-1.57Zm-1.9,2.57c0,.72.37,1.11.8,1.11.67,0,.86-.48.86-1.19s-.16-1.06-.81-1.06S108.78,236.11,108.78,236.84Z" transform="translate(-47.31 -29.38)"/><path d="M99.74,241.74a.92.92,0,0,1,1-.84.85.85,0,0,1,.93.87.72.72,0,0,1-.46.72h0a.86.86,0,0,1,.62.89,1.1,1.1,0,0,1-2.18.17h.26a.82.82,0,0,0,.84.66.75.75,0,0,0,.8-.81c0-.55-.35-.77-.85-.77h-.2v-.24h.16c.51,0,.74-.22.74-.63a.61.61,0,0,0-.67-.62.68.68,0,0,0-.72.59Z" transform="translate(-47.31 -29.38)"/><path d="M102.52,242.47v-.68h.25c0,.09,0,.32,0,.47a.8.8,0,0,1,.76-.53.72.72,0,0,1,.74.52.86.86,0,0,1,.83-.52c.39,0,.79.23.79,1v1.72h-.25v-1.69c0-.35-.12-.73-.59-.73s-.72.41-.72.91v1.51h-.25v-1.69c0-.38-.11-.73-.58-.73s-.73.45-.73,1v1.44h-.26Z" transform="translate(-47.31 -29.38)"/><path d="M98.89,208.52V205a2.57,2.57,0,0,1-.86.46v-.28a3.28,3.28,0,0,0,.92-.59h.25v4Z" transform="translate(-47.31 -29.38)"/><path d="M100.82,208.52V205a2.66,2.66,0,0,1-.86.46v-.28a3.24,3.24,0,0,0,.91-.59h.25v4Z" transform="translate(-47.31 -29.38)"/><path d="M103.71,206.3v-.77H104c0,.1,0,.36,0,.53a.91.91,0,0,1,.87-.61.81.81,0,0,1,.84.6,1,1,0,0,1,1-.6c.45,0,.92.27.92,1.1v2h-.29v-1.93c0-.4-.14-.84-.68-.84s-.83.47-.83,1.05v1.72h-.28v-1.93c0-.43-.13-.84-.67-.84s-.83.51-.83,1.12v1.65h-.3Z" transform="translate(-47.31 -29.38)"/><path d="M108.54,204.1h.29v.59h-.29Zm0,1.43h.29v3h-.29Z" transform="translate(-47.31 -29.38)"/><path d="M109.79,206.28c0-.26,0-.51,0-.75h.29c0,.09,0,.48,0,.57a1,1,0,0,1,1-.65c.52,0,1,.3,1,1.13v1.94h-.29v-1.89c0-.53-.21-.88-.72-.88-.69,0-.93.59-.93,1.24v1.53h-.29Z" transform="translate(-47.31 -29.38)"/><path d="M115.11,207.65c0,.29,0,.76,0,.87h-.28a5,5,0,0,1,0-.52.89.89,0,0,1-.93.6c-.42,0-1-.17-1-1.09v-2h.28v1.91c0,.44.14.86.72.86s.89-.38.89-1.23v-1.54h.29Z" transform="translate(-47.31 -29.38)"/><path d="M115.7,205.53h.54v-.94h.29v.94h.7v.28h-.7v1.95c0,.33.07.52.35.52a1.12,1.12,0,0,0,.31,0v.26a1.06,1.06,0,0,1-.37.06c-.37,0-.58-.2-.58-.68v-2.08h-.54Z" transform="translate(-47.31 -29.38)"/><path d="M117.85,207.06c0,.77.38,1.25.94,1.25a.81.81,0,0,0,.84-.56h.3a1.12,1.12,0,0,1-1.15.85c-.88,0-1.23-.79-1.23-1.55s.41-1.6,1.27-1.6a1.23,1.23,0,0,1,1.18,1.37,1.93,1.93,0,0,1,0,.24Zm1.85-.26c0-.6-.32-1.06-.9-1.06s-.87.43-.93,1.06Z" transform="translate(-47.31 -29.38)"/><path d="M120.78,207.7a.77.77,0,0,0,.82.62c.52,0,.73-.25.73-.58s-.14-.51-.79-.67-.94-.42-.94-.82.3-.8,1-.8a.94.94,0,0,1,1,.84h-.29a.69.69,0,0,0-.74-.56c-.51,0-.65.26-.65.5s.14.41.72.56c.82.2,1,.47,1,.92a.92.92,0,0,1-1,.89,1,1,0,0,1-1.12-.9Z" transform="translate(-47.31 -29.38)"/><path class="cls-7" d="M289.54,193.46a14,14,0,0,0-3.47.43,14.57,14.57,0,0,0-3.29,1.25,15.75,15.75,0,0,0-2.93,2,16.25,16.25,0,0,0-2.42,2.68l-28.25-22.91a52.39,52.39,0,0,1,3.79-4.71,51.62,51.62,0,0,1,4.28-4.22,50.75,50.75,0,0,1,9.77-6.73,48.06,48.06,0,0,1,16.7-5.25,47.12,47.12,0,0,1,5.82-.36Z" transform="translate(-47.31 -29.38)"/><path class="cls-8" d="M277.43,199.84c-.17.24-.34.49-.5.74s-.31.5-.45.76-.29.52-.42.79-.26.54-.37.81-.23.55-.34.83-.19.57-.28.86-.17.57-.24.86-.14.59-.2.88-.11.6-.15.9-.08.59-.1.89-.05.61-.06.91,0,.6,0,.9,0,.6,0,.91.05.6.08.9.09.59.14.89.11.59.18.88.14.59.23.88.17.57.27.85.2.57.32.84.23.55.36.82.26.54.4.8.29.52.45.77.31.5.48.74.34.49.52.72.37.46.56.68.39.44.6.65.41.41.62.61.44.39.66.57.45.36.69.54.47.33.71.49l.74.44c.25.15.51.28.76.41s.52.24.78.36l.8.31.82.26c.27.08.55.15.82.21s.56.12.84.17l.84.11.85.07h.85c.29,0,.57,0,.85,0l.85-.08.84-.14.83-.19.82-.23.81-.29c.27-.1.53-.21.79-.33l.77-.38c.26-.13.51-.28.76-.42l.72-.47.71-.51.67-.55c.22-.2.44-.39.64-.6l.62-.62c.2-.22.39-.44.58-.67s.36-.46.54-.69.34-.48.5-.73.32-.5.47-.76.29-.52.43-.78.26-.54.38-.81.23-.55.34-.83.21-.56.3-.85.17-.57.25-.86.15-.58.21-.88.11-.59.16-.89.08-.59.11-.89.05-.61.07-.91,0-.6,0-.9,0-.61,0-.91,0-.6-.07-.9-.08-.6-.13-.89-.1-.6-.17-.89-.13-.59-.21-.87-.17-.58-.27-.87-.19-.56-.3-.84-.23-.55-.35-.82-.26-.54-.4-.81-.28-.52-.43-.77-.31-.51-.48-.75-.33-.49-.51-.73-.36-.46-.55-.68-.39-.45-.59-.66-.41-.42-.62-.62-.43-.39-.65-.58-.45-.37-.68-.54-.47-.35-.71-.51-.49-.31-.73-.45-.5-.29-.76-.42l-.78-.37-.79-.32q-.41-.15-.81-.27l-.83-.23-.83-.17-.84-.13c-.29,0-.57-.06-.85-.07s-.57,0-.85,0v-37.8c.94,0,1.89,0,2.83.09s1.89.14,2.83.25,1.87.25,2.81.42,1.85.36,2.78.58,1.83.48,2.74.75,1.81.59,2.71.92,1.77.69,2.65,1.07,1.73.79,2.59,1.23,1.69.89,2.52,1.38,1.64,1,2.44,1.52,1.59,1.09,2.36,1.67,1.53,1.19,2.27,1.81,1.47,1.27,2.17,1.94,1.4,1.36,2.07,2.07,1.32,1.43,1.95,2.18,1.25,1.52,1.84,2.3,1.16,1.58,1.72,2.4,1.07,1.65,1.58,2.5,1,1.72,1.45,2.6.9,1.77,1.31,2.67.81,1.82,1.17,2.75.71,1.86,1,2.81.61,1.91.87,2.87.51,1.94.72,2.92.41,2,.57,2.95.3,2,.42,3,.19,2,.25,3,.09,2,.1,3,0,2-.06,3-.12,2-.22,3-.23,2-.38,3-.33,2-.53,3-.43,2-.69,2.93-.53,1.93-.84,2.88-.64,1.9-1,2.83-.73,1.85-1.14,2.76-.83,1.81-1.28,2.69-.92,1.76-1.42,2.61-1,1.7-1.55,2.53-1.1,1.63-1.69,2.42-1.18,1.57-1.8,2.33-1.27,1.49-1.93,2.21-1.35,1.41-2,2.09-1.42,1.34-2.15,2-1.48,1.25-2.25,1.84-1.55,1.16-2.34,1.7-1.6,1.06-2.43,1.56-1.65,1-2.5,1.41-1.71.87-2.58,1.27-1.75.76-2.63,1.1-1.79.66-2.7.95-1.81.56-2.73.79-1.85.44-2.78.63-1.86.33-2.8.45-1.88.23-2.82.29-1.89.11-2.83.13-1.89,0-2.84-.05-1.89-.11-2.83-.21-1.87-.23-2.81-.38-1.86-.34-2.79-.55-1.84-.45-2.75-.72-1.82-.55-2.71-.87-1.79-.67-2.67-1-1.74-.77-2.6-1.19-1.71-.87-2.54-1.34-1.65-1-2.46-1.5-1.6-1.07-2.38-1.64-1.55-1.16-2.3-1.77-1.47-1.25-2.19-1.91-1.41-1.34-2.09-2-1.34-1.42-2-2.16-1.26-1.5-1.87-2.27-1.18-1.57-1.74-2.38-1.1-1.64-1.61-2.48-1-1.7-1.48-2.57-.92-1.76-1.35-2.66-.82-1.81-1.2-2.73-.73-1.86-1.06-2.8-.63-1.9-.91-2.86-.53-1.93-.76-2.9-.42-2-.6-2.95-.33-2-.45-3-.22-2-.29-3-.12-2-.13-3,0-2,0-3,.1-2,.18-3,.21-2,.35-3,.3-2,.49-3,.41-2,.66-2.93.51-1.94.8-2.89.61-1.91,1-2.84.71-1.87,1.1-2.78.81-1.82,1.25-2.71.9-1.77,1.39-2.63,1-1.71,1.52-2.55,1.08-1.64,1.66-2.44Z" transform="translate(-47.31 -29.38)"/><path d="M279.82,211v-1.1H278v-.29l1.84-2.55h.3v2.55h.52l0,.29h-.48V211Zm0-2.58c0-.22,0-.72,0-1-.15.29-1.07,1.54-1.51,2.17h1.5Z" transform="translate(-47.31 -29.38)"/><path d="M281.82,211v-3.57a2.43,2.43,0,0,1-.86.47v-.28a3.52,3.52,0,0,0,.92-.59h.25v4Z" transform="translate(-47.31 -29.38)"/><path d="M284.72,208.82c0-.26,0-.54,0-.78H285c0,.11,0,.36,0,.54a.91.91,0,0,1,.87-.61.83.83,0,0,1,.85.6,1,1,0,0,1,.95-.6c.45,0,.91.27.91,1.1v2h-.29v-1.93c0-.41-.14-.84-.68-.84s-.82.46-.82,1V211h-.29v-1.93c0-.44-.13-.84-.66-.84s-.84.51-.84,1.12V211h-.29Z" transform="translate(-47.31 -29.38)"/><path d="M289.54,206.62h.29v.58h-.29Zm0,1.42h.29v3h-.29Z" transform="translate(-47.31 -29.38)"/><path d="M290.79,208.8c0-.26,0-.52,0-.76h.29a5.51,5.51,0,0,1,0,.57,1,1,0,0,1,1-.64c.52,0,1,.3,1,1.13V211h-.29v-1.89c0-.54-.22-.88-.73-.88-.69,0-.93.59-.93,1.24V211h-.29Z" transform="translate(-47.31 -29.38)"/><path d="M296.12,210.17V211h-.28c0-.08,0-.27,0-.52a.91.91,0,0,1-.94.6c-.42,0-1-.17-1-1.09v-2h.29V210c0,.44.13.86.71.86s.9-.38.9-1.23V208h.29Z" transform="translate(-47.31 -29.38)"/><path d="M296.7,208h.55v-.93h.29V208h.69v.29h-.69v1.95c0,.33.07.52.35.52a1.05,1.05,0,0,0,.3,0V211a1,1,0,0,1-.36.05c-.38,0-.58-.19-.58-.67v-2.08h-.55Z" transform="translate(-47.31 -29.38)"/><path d="M298.85,209.58c0,.77.39,1.25.95,1.25a.81.81,0,0,0,.83-.56h.3a1.13,1.13,0,0,1-1.15.85c-.88,0-1.23-.79-1.23-1.55s.42-1.6,1.27-1.6a1.23,1.23,0,0,1,1.18,1.36v.25Zm1.85-.26c0-.6-.32-1.07-.89-1.07s-.88.44-.94,1.07Z" transform="translate(-47.31 -29.38)"/><path d="M301.78,210.22a.78.78,0,0,0,.83.62c.52,0,.73-.25.73-.58s-.14-.51-.8-.67-.94-.42-.94-.82.31-.8,1-.8a1,1,0,0,1,1,.84h-.3a.69.69,0,0,0-.74-.56c-.5,0-.65.26-.65.5s.14.41.72.55c.82.21,1,.48,1,.93a.92.92,0,0,1-1,.89,1,1,0,0,1-1.12-.9Z" transform="translate(-47.31 -29.38)"/><path d="M268.49,174.57a.92.92,0,0,0,1,.77c.65,0,.9-.33.9-.73s-.18-.67-1-.87-1.08-.44-1.08-1,.34-.93,1.1-.93a1,1,0,0,1,1.16.93h-.28a.8.8,0,0,0-.89-.67c-.52,0-.8.25-.8.65s.24.56.89.73c1,.26,1.15.67,1.15,1.11s-.38,1-1.2,1a1.15,1.15,0,0,1-1.28-1Z" transform="translate(-47.31 -29.38)"/><path d="M271.56,175.17v1.43h-.26v-3.66h.25c0,.1,0,.25,0,.47a.93.93,0,0,1,.89-.54c.6,0,1,.52,1,1.31s-.49,1.44-1.1,1.44A.84.84,0,0,1,271.56,175.17Zm1.64-1c0-.61-.28-1.07-.79-1.07s-.87.4-.87,1.11.2,1.14.84,1.14S273.2,174.91,273.2,174.19Z" transform="translate(-47.31 -29.38)"/><path d="M276.19,174.24c0,.73-.39,1.38-1.15,1.38s-1.11-.58-1.11-1.38.4-1.37,1.14-1.37S276.19,173.42,276.19,174.24Zm-2,0c0,.63.32,1.13.86,1.13s.86-.47.86-1.13-.3-1.12-.87-1.12S274.2,173.62,274.2,174.24Z" transform="translate(-47.31 -29.38)"/><path d="M276.44,172.94h.47v-.82h.25v.82h.61v.24h-.61v1.7c0,.3.06.46.31.46a.8.8,0,0,0,.26,0v.23a.78.78,0,0,1-.31.05c-.33,0-.51-.17-.51-.59v-1.82h-.47Z" transform="translate(-47.31 -29.38)"/><path d="M278.28,171.7h.26v.5h-.26Zm0,1.24h.26v2.61h-.26Z" transform="translate(-47.31 -29.38)"/><path d="M279.5,175.55v-2.37h-.44v-.24h.44v-.37c0-.44.12-.93.69-.93a.93.93,0,0,1,.25,0v.25a1.33,1.33,0,0,0-.28,0c-.3,0-.41.22-.41.68v.36h.56v.24h-.56v2.37Z" transform="translate(-47.31 -29.38)"/><path d="M280.89,172.94c.52,1.49.74,2.11.83,2.39h0c.1-.32.31-.92.8-2.39h.26l-.95,2.76c-.27.78-.45,1-.91,1h-.23v-.27a.78.78,0,0,0,.22,0c.37,0,.49-.18.67-.72l-1-2.73Z" transform="translate(-47.31 -29.38)"/><path d="M274,179.08a.63.63,0,0,0-.65-.51c-.64,0-.87.62-.88,1.53a.93.93,0,0,1,.9-.59,1,1,0,0,1,1,1.15,1.1,1.1,0,0,1-1.07,1.24c-.89,0-1.12-.77-1.12-1.74s.3-1.83,1.16-1.83a.85.85,0,0,1,.91.75Zm.11,1.6c0-.43-.17-.92-.76-.92a.82.82,0,0,0-.83.93c0,.28.15,1,.81,1S274.14,181.16,274.14,180.68Z" transform="translate(-47.31 -29.38)"/><path d="M275.07,179.89c0-.22,0-.47,0-.67h.25a3.24,3.24,0,0,1,0,.46.8.8,0,0,1,.76-.53.73.73,0,0,1,.74.52.87.87,0,0,1,.83-.52c.39,0,.8.23.8,1v1.72h-.26v-1.69c0-.35-.12-.73-.59-.73s-.72.41-.72.92v1.5h-.25v-1.68c0-.38-.11-.74-.58-.74s-.73.45-.73,1v1.44h-.25Z" transform="translate(-47.31 -29.38)"/><path d="M286,240.9v-1.37a.12.12,0,0,0,0-.09l-1.26-2.2H285c.36.62,1,1.71,1.13,2,.16-.27.78-1.35,1.16-2h.31l-1.33,2.22a.24.24,0,0,0,0,.08v1.36Z" transform="translate(-47.31 -29.38)"/><path d="M289.6,239.59c0,.73-.39,1.38-1.15,1.38s-1.11-.59-1.11-1.38.4-1.37,1.14-1.37S289.6,238.77,289.6,239.59Zm-2,0c0,.63.33,1.13.86,1.13s.86-.47.86-1.13-.3-1.12-.87-1.12S287.61,239,287.61,239.59Z" transform="translate(-47.31 -29.38)"/><path d="M292.13,240.14v.76h-.24c0-.07,0-.24,0-.45a.79.79,0,0,1-.82.52c-.37,0-.84-.15-.84-.95v-1.73h.25V240c0,.38.12.75.62.75s.79-.33.79-1.08v-1.34h.25Z" transform="translate(-47.31 -29.38)"/><path d="M293.51,237.5h-1.19v-.26H295v.26h-1.2v3.4h-.28Z" transform="translate(-47.31 -29.38)"/><path d="M296.75,240.14c0,.26,0,.66,0,.76h-.24a4,4,0,0,1,0-.45.79.79,0,0,1-.82.52c-.36,0-.83-.15-.83-.95v-1.73h.25V240c0,.38.11.75.62.75s.78-.33.78-1.08v-1.34h.25Z" transform="translate(-47.31 -29.38)"/><path d="M297.59,237.05h.25v1.68a.86.86,0,0,1,.87-.51c.6,0,1,.51,1,1.32s-.4,1.43-1.11,1.43a.79.79,0,0,1-.8-.48c0,.17,0,.34,0,.41h-.25c0-.29,0-.59,0-.89Zm1.89,2.49c0-.65-.31-1.07-.8-1.07s-.86.44-.86,1.13.2,1.12.83,1.12S299.48,240.28,299.48,239.54Z" transform="translate(-47.31 -29.38)"/><path d="M300.46,239.63c0,.67.34,1.09.83,1.09a.71.71,0,0,0,.73-.49h.26a1,1,0,0,1-1,.74c-.78,0-1.07-.69-1.07-1.35s.36-1.4,1.1-1.4a1.07,1.07,0,0,1,1,1.19,1.55,1.55,0,0,1,0,.22Zm1.62-.23c0-.52-.28-.93-.78-.93s-.76.38-.82.93Z" transform="translate(-47.31 -29.38)"/><path d="M289.17,244.51a.92.92,0,0,1,1-.83.84.84,0,0,1,.93.86.72.72,0,0,1-.46.72h0a.86.86,0,0,1,.62.9,1.1,1.1,0,0,1-2.18.16h.26a.82.82,0,0,0,.84.66.75.75,0,0,0,.8-.81c0-.55-.35-.77-.85-.77h-.19v-.24h.15c.51,0,.74-.22.74-.63a.6.6,0,0,0-.67-.61.67.67,0,0,0-.72.58Z" transform="translate(-47.31 -29.38)"/><path d="M293.83,244h-1.44c0,.34-.14,1-.18,1.21a.9.9,0,0,1,.77-.34c.58,0,1,.4,1,1.14a1.09,1.09,0,0,1-1.09,1.24,1,1,0,0,1-1-.9h.27a.77.77,0,0,0,.79.65c.53,0,.79-.38.79-1s-.21-.9-.73-.9a.77.77,0,0,0-.81.52l-.25-.07c.11-.47.22-1.42.27-1.83h1.69Z" transform="translate(-47.31 -29.38)"/><path d="M294.64,245.24c0-.22,0-.47,0-.67h.25c0,.08,0,.31,0,.46a.8.8,0,0,1,.76-.53.73.73,0,0,1,.74.52.87.87,0,0,1,.83-.52c.39,0,.79.23.79,1v1.72h-.25v-1.69c0-.35-.12-.73-.59-.73s-.72.41-.72.91v1.51h-.25V245.5c0-.38-.11-.74-.58-.74s-.73.45-.73,1v1.44h-.25Z" transform="translate(-47.31 -29.38)"/><g class="cls-9"><rect class="cls-10" x="2.47" y="3.89" width="122.69" height="54.68"/><line x1="2.47" y1="58.58" x2="125.16" y2="58.58"/></g><rect class="cls-11" x="25.36" y="54.93" width="5.12" height="3.5"/><rect class="cls-12" x="95.93" y="51.97" width="5.12" height="6.45"/><rect class="cls-13" x="25.36" y="45.59" width="5.12" height="9.34"/><rect class="cls-12" x="95.93" y="46.05" width="5.12" height="5.92"/><rect class="cls-14" x="25.36" y="45.37" width="5.12" height="0.23"/><rect class="cls-12" x="95.93" y="41.49" width="5.12" height="4.55"/><rect class="cls-12" x="9.18" y="49.68" width="5.12" height="8.74"/><rect class="cls-12" x="9.18" y="49.23" width="5.12" height="0.46"/><rect class="cls-12" x="9.18" y="38.73" width="5.12" height="10.5"/><rect class="cls-12" x="9.18" y="36.22" width="5.12" height="2.51"/><rect class="cls-15" x="43" y="42.18" width="5.12" height="16.26"/><rect class="cls-15" x="43" y="35.34" width="5.12" height="6.83"/><rect class="cls-15" x="43" y="31.02" width="5.12" height="4.33"/><rect class="cls-15" x="43" y="29.88" width="5.12" height="1.14"/><rect class="cls-12" x="60.64" y="49.83" width="5.12" height="8.6"/><rect class="cls-12" x="60.64" y="39.65" width="5.12" height="10.18"/><rect class="cls-12" x="60.64" y="38.52" width="5.12" height="1.13"/><rect class="cls-12" x="60.64" y="36.48" width="5.12" height="2.04"/><rect class="cls-12" x="78.29" y="44.36" width="5.12" height="14.07"/><rect class="cls-12" x="78.29" y="26.2" width="5.12" height="18.16"/><rect class="cls-12" x="78.29" y="23.47" width="5.12" height="2.72"/><rect class="cls-12" x="78.29" y="15.53" width="5.12" height="7.95"/><rect class="cls-12" x="95.93" y="40.35" width="5.12" height="1.14"/><rect class="cls-12" x="113.57" y="56.17" width="5.12" height="2.26"/><rect class="cls-12" x="113.57" y="46.89" width="5.12" height="9.28"/><rect class="cls-12" x="113.57" y="44.86" width="5.12" height="2.04"/><rect class="cls-12" x="113.57" y="36.25" width="5.12" height="8.6"/><rect class="cls-16" x="2" y="2" width="123.98" height="252.9" rx="9.65"/><path d="M67.85,101.71H65.28v-.55H71v.55H68.45v7.15h-.6Z" transform="translate(-47.31 -29.38)"/><path d="M74.83,107.25c0,.54,0,1.4,0,1.61h-.52a6.77,6.77,0,0,1,0-1A1.67,1.67,0,0,1,72.52,109c-.79,0-1.79-.31-1.79-2v-3.64h.53v3.51c0,.8.25,1.58,1.34,1.58s1.68-.69,1.68-2.26v-2.83h.55Z" transform="translate(-47.31 -29.38)"/><path d="M76.75,106.17c0,1.42.72,2.3,1.77,2.3a1.52,1.52,0,0,0,1.57-1h.56A2.09,2.09,0,0,1,78.5,109c-1.67,0-2.31-1.44-2.31-2.84,0-1.57.78-2.92,2.37-2.92a2.26,2.26,0,0,1,2.22,2.49c0,.16,0,.31,0,.45Zm3.46-.48c0-1.09-.6-2-1.67-2s-1.64.8-1.76,2Z" transform="translate(-47.31 -29.38)"/><path d="M82.25,107.34a1.46,1.46,0,0,0,1.56,1.15c1,0,1.36-.46,1.36-1.07s-.26-.94-1.48-1.23c-1.42-.35-1.77-.77-1.77-1.5s.57-1.46,1.81-1.46a1.74,1.74,0,0,1,1.91,1.54H85.1a1.29,1.29,0,0,0-1.39-1c-1,0-1.23.48-1.23.92s.26.75,1.35,1c1.54.37,1.92.88,1.92,1.7,0,1-.81,1.62-2,1.62a1.91,1.91,0,0,1-2.1-1.65Z" transform="translate(-47.31 -29.38)"/><path d="M91.33,100.75v6.53c0,.52,0,1,0,1.58h-.53c0-.13,0-.65,0-.93A1.79,1.79,0,0,1,89,109c-1.42,0-2.28-1.16-2.28-2.82s.93-2.94,2.42-2.94c1.1,0,1.53.47,1.7.82v-3.3Zm-4.08,5.4c0,1.51.78,2.32,1.72,2.32,1.45,0,1.84-1,1.84-2.49s-.34-2.24-1.74-2.24C88,103.74,87.25,104.61,87.25,106.15Z" transform="translate(-47.31 -29.38)"/><path d="M96.81,107.81a7,7,0,0,0,.07,1h-.52a3.16,3.16,0,0,1-.1-.85,1.8,1.8,0,0,1-1.79,1,1.63,1.63,0,0,1-1.82-1.65c0-1.21.93-1.76,2.57-1.76h1V105c0-.55-.16-1.29-1.41-1.29s-1.27.59-1.39,1h-.55a1.7,1.7,0,0,1,2-1.54c1.25,0,2,.52,2,1.73Zm-.54-1.76H95.2c-1.22,0-2,.32-2,1.27a1.15,1.15,0,0,0,1.26,1.17c1.56,0,1.78-1,1.78-2.24Z" transform="translate(-47.31 -29.38)"/><path d="M98.42,103.36c1.1,3.14,1.58,4.44,1.77,5h0c.22-.67.66-2,1.72-5h.57l-2.06,5.82c-.58,1.63-1,2-2,2a3.84,3.84,0,0,1-.5,0v-.55a3.91,3.91,0,0,0,.49,0c.79,0,1-.39,1.44-1.52l-2.08-5.74Z" transform="translate(-47.31 -29.38)"/><path d="M106,106.83a2,2,0,0,1,1.39-1.93,1.63,1.63,0,0,1-1.07-1.55,1.85,1.85,0,0,1,2.1-1.86,1.82,1.82,0,0,1,2,1.85,1.58,1.58,0,0,1-1.06,1.54,1.94,1.94,0,0,1,1.36,1.93,2.18,2.18,0,0,1-2.39,2.18A2.16,2.16,0,0,1,106,106.83Zm4.13,0a1.55,1.55,0,0,0-1.76-1.64,1.57,1.57,0,0,0-1.78,1.64,1.62,1.62,0,0,0,1.77,1.66A1.59,1.59,0,0,0,110.15,106.81Zm-3.22-3.5a1.31,1.31,0,0,0,1.5,1.34c1,0,1.42-.53,1.42-1.29a1.3,1.3,0,0,0-1.44-1.35C107.33,102,106.93,102.58,106.93,103.31Z" transform="translate(-47.31 -29.38)"/><path d="M111.35,103.36h1v-1.72h.55v1.72h1.3v.52h-1.3v3.57c0,.62.13,1,.65,1a1.86,1.86,0,0,0,.57-.07v.49a2.07,2.07,0,0,1-.68.1c-.7,0-1.09-.36-1.09-1.24v-3.82h-1Z" transform="translate(-47.31 -29.38)"/><path d="M115.85,100.75v3.53a1.91,1.91,0,0,1,1.81-1c.77,0,1.85.39,1.85,2.13v3.5H119v-3.39c0-1.09-.49-1.7-1.4-1.7-1.08,0-1.71.67-1.71,2v3.07h-.55v-8.11Z" transform="translate(-47.31 -29.38)"/><path d="M131,105.32c0-1.51,0-2.95.05-3.72h0c-.3,1-1.86,4.83-2.83,7.26h-.58c-.73-1.88-2.34-6.11-2.69-7.27h0c0,.88.07,2.67.07,4v3.28h-.59v-7.7h.89c1.05,2.64,2.37,6.09,2.66,7h0c.17-.56,1.71-4.4,2.78-7h.87v7.7H131Z" transform="translate(-47.31 -29.38)"/><path d="M137.12,107.81a7,7,0,0,0,.07,1h-.52a3.16,3.16,0,0,1-.1-.85,1.8,1.8,0,0,1-1.8,1,1.63,1.63,0,0,1-1.81-1.65c0-1.21.93-1.76,2.57-1.76h1V105c0-.55-.17-1.29-1.41-1.29s-1.27.59-1.39,1h-.55a1.7,1.7,0,0,1,1.95-1.54c1.25,0,2,.52,2,1.73Zm-.54-1.76h-1.07c-1.22,0-2,.32-2,1.27a1.15,1.15,0,0,0,1.26,1.17c1.56,0,1.78-1,1.78-2.24Z" transform="translate(-47.31 -29.38)"/><path d="M138.92,104.85c0-.92,0-1.32,0-1.49h.54c0,.17,0,.53,0,1.23a2.08,2.08,0,0,1,1.9-1.36v.59a2,2,0,0,0-1.9,2.18v2.86h-.55Z" transform="translate(-47.31 -29.38)"/><path d="M146.41,107.24a2.12,2.12,0,0,1-2.13,1.75c-1.36,0-2.34-1-2.34-2.86,0-1.51.8-2.9,2.41-2.9a2,2,0,0,1,2.06,1.76h-.56a1.48,1.48,0,0,0-1.51-1.25c-1.16,0-1.82,1-1.82,2.37s.62,2.36,1.76,2.36a1.55,1.55,0,0,0,1.57-1.23Z" transform="translate(-47.31 -29.38)"/><path d="M148.23,100.75v3.53a1.89,1.89,0,0,1,1.8-1c.78,0,1.85.39,1.85,2.13v3.5h-.55v-3.39c0-1.09-.49-1.7-1.4-1.7-1.08,0-1.7.67-1.7,2v3.07h-.55v-8.11Z" transform="translate(-47.31 -29.38)"/><path d="M59.27,129.94a.84.84,0,0,0,.9.74c.59,0,.81-.32.81-.7s-.16-.64-.86-.83-1-.43-1-.93a.88.88,0,0,1,1-.89,1,1,0,0,1,1,.89h-.26a.72.72,0,0,0-.79-.64c-.46,0-.71.23-.71.62s.21.54.79.7c.9.24,1,.64,1,1.06a1,1,0,0,1-1.08,1,1.05,1.05,0,0,1-1.14-1Z" transform="translate(-47.31 -29.38)"/><path d="M63.71,129.62c0,.7-.35,1.32-1,1.32s-1-.56-1-1.31.36-1.31,1-1.31S63.71,128.84,63.71,129.62Zm-1.79,0c0,.59.3,1.07.78,1.07s.77-.44.77-1.07-.28-1.08-.78-1.08S61.92,129,61.92,129.63Z" transform="translate(-47.31 -29.38)"/><path d="M66,130.14a.9.9,0,0,1-.88.8c-.57,0-1-.47-1-1.3s.33-1.32,1-1.32a.85.85,0,0,1,.85.8h-.23a.64.64,0,0,0-.63-.57c-.48,0-.75.45-.75,1.08s.25,1.07.73,1.07c.33,0,.53-.18.65-.56Z" transform="translate(-47.31 -29.38)"/><path d="M66.56,127.19h.23v.49h-.23Zm0,1.19h.23v2.5h-.23Z" transform="translate(-47.31 -29.38)"/><path d="M69.06,130.4a3.93,3.93,0,0,0,0,.48h-.22a1.78,1.78,0,0,1,0-.39.74.74,0,0,1-.74.45.71.71,0,0,1-.76-.75c0-.55.39-.8,1.07-.8h.43v-.26a.59.59,0,0,0-1.16-.11h-.23a.73.73,0,0,1,.81-.7.71.71,0,0,1,.81.79Zm-.22-.8h-.45c-.5,0-.82.15-.82.58a.5.5,0,0,0,.53.53c.65,0,.74-.48.74-1Z" transform="translate(-47.31 -29.38)"/><path d="M69.81,130.88v-3.69H70v3.69Z" transform="translate(-47.31 -29.38)"/><line class="cls-17" x1="9.06" y1="108.93" x2="117.36" y2="108.67"/><path d="M84.19,129.1H82.57v1.47h1.78l0,.25h-2v-3.5h2v.25H82.57v1.28h1.62Z" transform="translate(-47.31 -29.38)"/><path d="M84.86,129v-.63h.22a3.73,3.73,0,0,1,0,.47.76.76,0,0,1,.76-.53c.4,0,.76.25.76.94v1.62h-.23v-1.58c0-.45-.17-.74-.56-.74s-.73.5-.73,1v1.28h-.23Z" transform="translate(-47.31 -29.38)"/><path d="M87,128.32h.42v-.78h.23v.78h.54v.23h-.54v1.63c0,.28.06.44.27.44a1,1,0,0,0,.24,0v.22a.86.86,0,0,1-.28,0c-.29,0-.46-.16-.46-.56v-1.74H87Z" transform="translate(-47.31 -29.38)"/><path d="M88.68,129.6c0,.64.3,1,.74,1a.64.64,0,0,0,.65-.47h.23a.88.88,0,0,1-.89.71c-.7,0-1-.66-1-1.29s.32-1.33,1-1.33a1,1,0,0,1,.93,1.13,1.48,1.48,0,0,1,0,.21Zm1.44-.22c0-.5-.25-.89-.7-.89s-.68.36-.73.89Z" transform="translate(-47.31 -29.38)"/><path d="M90.91,129v-.68h.22c0,.08,0,.24,0,.56a.86.86,0,0,1,.79-.62v.27a.87.87,0,0,0-.79,1v1.3h-.23Z" transform="translate(-47.31 -29.38)"/><path d="M92.18,128.32h.43v-.78h.22v.78h.55v.23h-.55v1.63c0,.28.06.44.28.44a1,1,0,0,0,.23,0v.22a.79.79,0,0,1-.28,0c-.29,0-.45-.16-.45-.56v-1.74h-.43Z" transform="translate(-47.31 -29.38)"/><path d="M95.4,130.34a3.93,3.93,0,0,0,0,.48h-.22a1.78,1.78,0,0,1,0-.39.74.74,0,0,1-.74.45.71.71,0,0,1-.76-.75c0-.55.39-.8,1.07-.8h.43v-.26c0-.25-.07-.58-.59-.58A.51.51,0,0,0,94,129h-.23a.73.73,0,0,1,.81-.7.71.71,0,0,1,.81.79Zm-.22-.8h-.45c-.5,0-.82.15-.82.58a.5.5,0,0,0,.53.53c.64,0,.74-.48.74-1Z" transform="translate(-47.31 -29.38)"/><path d="M96.15,127.13h.23v.49h-.23Zm0,1.19h.23v2.5h-.23Z" transform="translate(-47.31 -29.38)"/><path d="M97.12,129v-.63h.22c0,.08,0,.4,0,.47a.75.75,0,0,1,.75-.53c.41,0,.77.25.77.94v1.62h-.23v-1.58c0-.45-.17-.74-.56-.74s-.73.5-.73,1v1.28h-.23Z" transform="translate(-47.31 -29.38)"/><path d="M99.61,129v-.64h.22a3,3,0,0,1,0,.44.72.72,0,0,1,.68-.5.65.65,0,0,1,.66.49.77.77,0,0,1,.74-.49c.35,0,.72.22.72.91v1.65h-.23V129.2c0-.33-.11-.7-.53-.7s-.64.39-.64.88v1.44H101v-1.61c0-.37-.1-.71-.51-.71s-.66.43-.66.94v1.38h-.23Z" transform="translate(-47.31 -29.38)"/><path d="M103.43,129.6c0,.64.3,1,.74,1a.65.65,0,0,0,.66-.47h.23a.9.9,0,0,1-.9.71c-.69,0-1-.66-1-1.29s.32-1.33,1-1.33.92.66.92,1.13v.21Zm1.45-.22c0-.5-.26-.89-.7-.89s-.68.36-.73.89Z" transform="translate(-47.31 -29.38)"/><path d="M105.67,129c0-.22,0-.43,0-.63h.22a3.73,3.73,0,0,1,0,.47.76.76,0,0,1,.76-.53c.4,0,.76.25.76.94v1.62h-.22v-1.58c0-.45-.17-.74-.57-.74s-.73.5-.73,1v1.28h-.22Z" transform="translate(-47.31 -29.38)"/><path d="M107.8,128.32h.43v-.78h.22v.78H109v.23h-.55v1.63c0,.28.06.44.28.44a1,1,0,0,0,.23,0v.22a.79.79,0,0,1-.28,0c-.29,0-.45-.16-.45-.56v-1.74h-.43Z" transform="translate(-47.31 -29.38)"/><path d="M121.58,127.26v3.5h-.25v-3.5Z" transform="translate(-47.31 -29.38)"/><path d="M122.36,128.89v-.63h.22c0,.08,0,.4,0,.47a.74.74,0,0,1,.75-.53c.41,0,.77.25.77.94v1.62h-.23v-1.58c0-.45-.17-.74-.57-.74s-.72.5-.72,1v1.28h-.23Z" transform="translate(-47.31 -29.38)"/><path d="M124.91,130.76v-2.27h-.39v-.23h.39v-.36c0-.42.11-.88.62-.88a.72.72,0,0,1,.22,0v.24a1.05,1.05,0,0,0-.24,0c-.27,0-.37.21-.37.64v.35h.49v.23h-.49v2.27Z" transform="translate(-47.31 -29.38)"/><path d="M127.83,129.5c0,.7-.35,1.32-1,1.32s-1-.56-1-1.31.36-1.31,1-1.31S127.83,128.72,127.83,129.5Zm-1.78,0c0,.59.29,1.07.78,1.07s.76-.44.76-1.07-.27-1.08-.77-1.08S126.05,128.91,126.05,129.51Z" transform="translate(-47.31 -29.38)"/><path d="M128.4,128.94c0-.42,0-.6,0-.68h.23c0,.08,0,.24,0,.56a.86.86,0,0,1,.79-.62v.27c-.48,0-.79.39-.79,1v1.3h-.23Z" transform="translate(-47.31 -29.38)"/><path d="M129.82,128.9v-.64H130c0,.08,0,.3,0,.44a.71.71,0,0,1,.68-.5.65.65,0,0,1,.66.49.76.76,0,0,1,.74-.49c.35,0,.72.22.72.91v1.65h-.23v-1.62c0-.33-.11-.7-.53-.7s-.64.39-.64.88v1.44h-.23v-1.61c0-.37-.1-.71-.52-.71s-.65.43-.65.94v1.38h-.23Z" transform="translate(-47.31 -29.38)"/><path d="M135.12,130.28a2.34,2.34,0,0,0,0,.48h-.22a1.78,1.78,0,0,1,0-.39.75.75,0,0,1-.75.45.71.71,0,0,1-.75-.75c0-.55.38-.8,1.06-.8h.44V129c0-.25-.07-.58-.59-.58a.51.51,0,0,0-.58.47h-.22a.72.72,0,0,1,.8-.7.71.71,0,0,1,.81.79Zm-.22-.8h-.44c-.51,0-.82.15-.82.58a.5.5,0,0,0,.52.53c.65,0,.74-.48.74-1Z" transform="translate(-47.31 -29.38)"/><path d="M135.51,128.26h.42v-.78h.23v.78h.54v.23h-.54v1.63c0,.28.06.44.27.44a1,1,0,0,0,.24,0v.22a.86.86,0,0,1-.28,0c-.29,0-.46-.16-.46-.56v-1.74h-.42Z" transform="translate(-47.31 -29.38)"/><path d="M137.17,127.07h.22v.49h-.22Zm0,1.19h.22v2.5h-.22Z" transform="translate(-47.31 -29.38)"/><path d="M140,129.5c0,.7-.35,1.32-1,1.32s-1-.56-1-1.31.36-1.31,1-1.31S140,128.72,140,129.5Zm-1.78,0c0,.59.29,1.07.77,1.07s.77-.44.77-1.07-.27-1.08-.78-1.08S138.2,128.91,138.2,129.51Z" transform="translate(-47.31 -29.38)"/><path d="M140.54,128.89v-.63h.22a3.73,3.73,0,0,1,0,.47.76.76,0,0,1,.76-.53c.4,0,.76.25.76.94v1.62h-.23v-1.58c0-.45-.17-.74-.56-.74-.54,0-.73.5-.73,1v1.28h-.23Z" transform="translate(-47.31 -29.38)"/><path d="M155.47,129c0,1-.46,1.83-1.44,1.83s-1.42-.8-1.42-1.8.5-1.8,1.45-1.8S155.47,128,155.47,129Zm-2.6,0c0,.81.41,1.57,1.17,1.57s1.17-.74,1.17-1.57-.39-1.53-1.16-1.53S152.87,128.2,152.87,129Z" transform="translate(-47.31 -29.38)"/><path d="M155.87,128.26h.42v-.78h.23v.78h.54v.23h-.54v1.63c0,.28,0,.44.27.44a1,1,0,0,0,.24,0v.22a.86.86,0,0,1-.28,0c-.29,0-.46-.16-.46-.56v-1.74h-.42Z" transform="translate(-47.31 -29.38)"/><path d="M157.74,127.07v1.61a.79.79,0,0,1,.75-.48c.32,0,.77.18.77,1v1.59H159v-1.54c0-.5-.21-.78-.58-.78s-.71.31-.71.92v1.4h-.23v-3.69Z" transform="translate(-47.31 -29.38)"/><path d="M160.05,129.54c0,.64.3,1,.74,1a.63.63,0,0,0,.65-.47h.24a.9.9,0,0,1-.9.71c-.69,0-1-.66-1-1.29s.32-1.33,1-1.33.92.66.92,1.13v.21Zm1.44-.22c0-.5-.25-.89-.69-.89s-.68.36-.73.89Z" transform="translate(-47.31 -29.38)"/><path d="M162.29,128.94c0-.42,0-.6,0-.68h.22c0,.08,0,.24,0,.56a.87.87,0,0,1,.79-.62v.27a.87.87,0,0,0-.79,1v1.3h-.22Z" transform="translate(-47.31 -29.38)"/><rect class="cls-18" x="9.18" y="96.08" width="17.4" height="7.49" rx="3.23"/><g class="cls-19"><rect class="cls-10" x="180.71" y="3.89" width="122.69" height="54.68"/><line x1="180.71" y1="58.58" x2="303.4" y2="58.58"/></g><rect class="cls-11" x="203.61" y="54.93" width="5.12" height="3.5"/><rect class="cls-12" x="274.17" y="51.97" width="5.12" height="6.45"/><rect class="cls-13" x="203.61" y="45.59" width="5.12" height="9.34"/><rect class="cls-12" x="274.17" y="46.05" width="5.12" height="5.92"/><rect class="cls-14" x="203.61" y="45.37" width="5.12" height="0.23"/><rect class="cls-12" x="274.17" y="41.49" width="5.12" height="4.55"/><rect class="cls-12" x="187.42" y="49.68" width="5.12" height="8.74"/><rect class="cls-12" x="187.42" y="49.23" width="5.12" height="0.46"/><rect class="cls-12" x="187.42" y="38.73" width="5.12" height="10.5"/><rect class="cls-12" x="187.42" y="36.22" width="5.12" height="2.51"/><rect class="cls-15" x="221.25" y="42.18" width="5.12" height="16.26"/><rect class="cls-15" x="221.25" y="35.34" width="5.12" height="6.83"/><rect class="cls-15" x="221.25" y="31.02" width="5.12" height="4.33"/><rect class="cls-15" x="221.25" y="29.88" width="5.12" height="1.14"/><rect class="cls-12" x="238.89" y="49.83" width="5.12" height="8.6"/><rect class="cls-12" x="238.89" y="39.65" width="5.12" height="10.18"/><rect class="cls-12" x="238.89" y="38.52" width="5.12" height="1.13"/><rect class="cls-12" x="238.89" y="36.48" width="5.12" height="2.04"/><rect class="cls-12" x="256.53" y="44.36" width="5.12" height="14.07"/><rect class="cls-12" x="256.53" y="26.2" width="5.12" height="18.16"/><rect class="cls-12" x="256.53" y="23.47" width="5.12" height="2.72"/><rect class="cls-12" x="256.53" y="15.53" width="5.12" height="7.95"/><rect class="cls-12" x="274.17" y="40.35" width="5.12" height="1.14"/><rect class="cls-12" x="291.81" y="56.17" width="5.12" height="2.26"/><rect class="cls-12" x="291.81" y="46.89" width="5.12" height="9.28"/><rect class="cls-12" x="291.81" y="44.86" width="5.12" height="2.04"/><rect class="cls-12" x="291.81" y="36.25" width="5.12" height="8.6"/><rect class="cls-16" x="180.24" y="2" width="123.98" height="252.9" rx="9.65"/><path d="M246.09,101.71h-2.57v-.55h5.75v.55h-2.58v7.15h-.6Z" transform="translate(-47.31 -29.38)"/><path d="M253.07,107.25c0,.54,0,1.4,0,1.61h-.52a8.82,8.82,0,0,1,0-1,1.67,1.67,0,0,1-1.76,1.09c-.78,0-1.79-.31-1.79-2v-3.64h.53v3.51c0,.8.26,1.58,1.34,1.58s1.68-.69,1.68-2.26v-2.83h.55Z" transform="translate(-47.31 -29.38)"/><path d="M255,106.17c0,1.42.72,2.3,1.77,2.3a1.55,1.55,0,0,0,1.58-1h.55a2.09,2.09,0,0,1-2.15,1.55c-1.66,0-2.31-1.44-2.31-2.84,0-1.57.78-2.92,2.37-2.92a2.27,2.27,0,0,1,2.23,2.49,3.24,3.24,0,0,1,0,.45Zm3.47-.48a1.74,1.74,0,0,0-1.68-2c-1.12,0-1.64.8-1.76,2Z" transform="translate(-47.31 -29.38)"/><path d="M260.49,107.34a1.46,1.46,0,0,0,1.56,1.15c1,0,1.36-.46,1.36-1.07s-.26-.94-1.48-1.23c-1.41-.35-1.76-.77-1.76-1.5s.56-1.46,1.8-1.46a1.74,1.74,0,0,1,1.91,1.54h-.54a1.29,1.29,0,0,0-1.39-1c-.95,0-1.23.48-1.23.92s.27.75,1.35,1c1.54.37,1.92.88,1.92,1.7,0,1-.81,1.62-1.95,1.62a1.9,1.9,0,0,1-2.1-1.65Z" transform="translate(-47.31 -29.38)"/><path d="M269.58,100.75v6.53c0,.52,0,1,0,1.58h-.53c0-.13,0-.65,0-.93a1.79,1.79,0,0,1-1.84,1.06c-1.42,0-2.27-1.16-2.27-2.82s.92-2.94,2.41-2.94c1.1,0,1.53.47,1.7.82v-3.3Zm-4.08,5.4c0,1.51.77,2.32,1.71,2.32,1.45,0,1.84-1,1.84-2.49s-.34-2.24-1.74-2.24C266.23,103.74,265.5,104.61,265.5,106.15Z" transform="translate(-47.31 -29.38)"/><path d="M275.05,107.81a7,7,0,0,0,.07,1h-.52a3.66,3.66,0,0,1-.1-.85,1.8,1.8,0,0,1-1.79,1,1.63,1.63,0,0,1-1.82-1.65c0-1.21.93-1.76,2.57-1.76h1V105c0-.55-.16-1.29-1.41-1.29s-1.27.59-1.39,1h-.55a1.7,1.7,0,0,1,2-1.54c1.25,0,1.95.52,1.95,1.73Zm-.54-1.76h-1.07c-1.21,0-2,.32-2,1.27a1.15,1.15,0,0,0,1.26,1.17c1.56,0,1.78-1,1.78-2.24Z" transform="translate(-47.31 -29.38)"/><path d="M276.66,103.36c1.1,3.14,1.59,4.44,1.77,5h0c.22-.67.66-2,1.72-5h.57l-2.06,5.82c-.58,1.63-1,2-2,2a4,4,0,0,1-.5,0v-.55a3.91,3.91,0,0,0,.49,0c.79,0,1-.39,1.45-1.52l-2.09-5.74Z" transform="translate(-47.31 -29.38)"/><path d="M284.26,106.83a2,2,0,0,1,1.39-1.93,1.64,1.64,0,0,1-1.07-1.55,1.85,1.85,0,0,1,2.1-1.86,1.82,1.82,0,0,1,2,1.85,1.58,1.58,0,0,1-1.06,1.54,1.94,1.94,0,0,1,1.36,1.93,2.37,2.37,0,0,1-4.72,0Zm4.13,0a1.77,1.77,0,0,0-3.53,0,1.61,1.61,0,0,0,1.76,1.66A1.59,1.59,0,0,0,288.39,106.81Zm-3.22-3.5a1.31,1.31,0,0,0,1.5,1.34c1,0,1.42-.53,1.42-1.29a1.3,1.3,0,0,0-1.44-1.35C285.57,102,285.17,102.58,285.17,103.31Z" transform="translate(-47.31 -29.38)"/><path d="M289.59,103.36h1v-1.72h.55v1.72h1.3v.52h-1.3v3.57c0,.62.13,1,.66,1a1.83,1.83,0,0,0,.56-.07v.49a2,2,0,0,1-.67.1c-.7,0-1.1-.36-1.1-1.24v-3.82h-1Z" transform="translate(-47.31 -29.38)"/><path d="M294.09,100.75v3.53a1.92,1.92,0,0,1,1.81-1c.77,0,1.85.39,1.85,2.13v3.5h-.55v-3.39c0-1.09-.49-1.7-1.4-1.7-1.08,0-1.71.67-1.71,2v3.07h-.54v-8.11Z" transform="translate(-47.31 -29.38)"/><path d="M309.19,105.32c0-1.51,0-2.95.05-3.72h0c-.3,1-1.86,4.83-2.83,7.26h-.58c-.73-1.88-2.34-6.11-2.69-7.27h0c.05.88.07,2.67.07,4v3.28h-.59v-7.7h.89c1.05,2.64,2.37,6.09,2.66,7h0c.18-.56,1.71-4.4,2.78-7h.87v7.7h-.59Z" transform="translate(-47.31 -29.38)"/><path d="M315.36,107.81a7,7,0,0,0,.07,1h-.52a3.16,3.16,0,0,1-.1-.85,1.8,1.8,0,0,1-1.79,1,1.63,1.63,0,0,1-1.82-1.65c0-1.21.93-1.76,2.57-1.76h1V105c0-.55-.16-1.29-1.41-1.29s-1.27.59-1.39,1h-.55a1.7,1.7,0,0,1,2-1.54c1.25,0,1.95.52,1.95,1.73Zm-.54-1.76h-1.07c-1.22,0-2,.32-2,1.27a1.15,1.15,0,0,0,1.26,1.17c1.56,0,1.78-1,1.78-2.24Z" transform="translate(-47.31 -29.38)"/><path d="M317.16,104.85c0-.92,0-1.32,0-1.49h.54c0,.17,0,.53,0,1.23a2.08,2.08,0,0,1,1.9-1.36v.59a2,2,0,0,0-1.9,2.18v2.86h-.55Z" transform="translate(-47.31 -29.38)"/><path d="M324.65,107.24a2.11,2.11,0,0,1-2.12,1.75c-1.37,0-2.35-1-2.35-2.86,0-1.51.8-2.9,2.41-2.9a2,2,0,0,1,2.06,1.76h-.56a1.48,1.48,0,0,0-1.51-1.25c-1.16,0-1.82,1-1.82,2.37s.62,2.36,1.77,2.36a1.53,1.53,0,0,0,1.56-1.23Z" transform="translate(-47.31 -29.38)"/><path d="M326.47,100.75v3.53a1.89,1.89,0,0,1,1.8-1c.78,0,1.85.39,1.85,2.13v3.5h-.55v-3.39c0-1.09-.49-1.7-1.4-1.7-1.08,0-1.7.67-1.7,2v3.07h-.55v-8.11Z" transform="translate(-47.31 -29.38)"/><path d="M237.52,129.94a.83.83,0,0,0,.9.74c.58,0,.8-.32.8-.7s-.16-.64-.86-.83-1-.43-1-.93a.88.88,0,0,1,1-.89,1,1,0,0,1,1,.89h-.25a.74.74,0,0,0-.8-.64c-.46,0-.71.23-.71.62s.21.54.8.7c.89.24,1,.64,1,1.06a1,1,0,0,1-1.07,1,1.05,1.05,0,0,1-1.15-1Z" transform="translate(-47.31 -29.38)"/><path d="M242,129.62c0,.7-.35,1.32-1,1.32s-1-.56-1-1.31.35-1.31,1-1.31S242,128.84,242,129.62Zm-1.78,0c0,.59.29,1.07.77,1.07s.77-.44.77-1.07-.27-1.08-.78-1.08S240.17,129,240.17,129.63Z" transform="translate(-47.31 -29.38)"/><path d="M244.21,130.14a.9.9,0,0,1-.88.8c-.57,0-1-.47-1-1.3s.33-1.32,1-1.32a.84.84,0,0,1,.85.8H244a.64.64,0,0,0-.63-.57c-.48,0-.75.45-.75,1.08s.25,1.07.73,1.07c.33,0,.53-.18.65-.56Z" transform="translate(-47.31 -29.38)"/><path d="M244.8,127.19H245v.49h-.23Zm0,1.19H245v2.5h-.23Z" transform="translate(-47.31 -29.38)"/><path d="M247.3,130.4a3.93,3.93,0,0,0,0,.48h-.22a2.85,2.85,0,0,1,0-.39.79.79,0,0,1-1.5-.3c0-.55.39-.8,1.07-.8h.43v-.26a.59.59,0,0,0-1.16-.11h-.23a.73.73,0,0,1,.81-.7.71.71,0,0,1,.81.79Zm-.22-.8h-.45c-.5,0-.82.15-.82.58a.5.5,0,0,0,.53.53c.65,0,.74-.48.74-1Z" transform="translate(-47.31 -29.38)"/><path d="M248.05,130.88v-3.69h.23v3.69Z" transform="translate(-47.31 -29.38)"/><line class="cls-17" x1="187.3" y1="108.93" x2="295.6" y2="108.67"/><path d="M262.44,129.1h-1.63v1.47h1.78l0,.25h-2v-3.5h1.95v.25h-1.71v1.28h1.63Z" transform="translate(-47.31 -29.38)"/><path d="M263.1,129v-.63h.22a3.73,3.73,0,0,1,0,.47.76.76,0,0,1,.76-.53c.4,0,.76.25.76.94v1.62h-.23v-1.58c0-.45-.16-.74-.56-.74s-.73.5-.73,1v1.28h-.23Z" transform="translate(-47.31 -29.38)"/><path d="M265.24,128.32h.42v-.78h.23v.78h.54v.23h-.54v1.63c0,.28.06.44.28.44a1,1,0,0,0,.23,0v.22a.86.86,0,0,1-.28,0c-.29,0-.46-.16-.46-.56v-1.74h-.42Z" transform="translate(-47.31 -29.38)"/><path d="M266.92,129.6c0,.64.3,1,.74,1a.64.64,0,0,0,.65-.47h.23a.88.88,0,0,1-.89.71c-.69,0-1-.66-1-1.29s.32-1.33,1-1.33.93.66.93,1.13a1.48,1.48,0,0,1,0,.21Zm1.44-.22c0-.5-.25-.89-.69-.89s-.69.36-.74.89Z" transform="translate(-47.31 -29.38)"/><path d="M269.15,129v-.68h.22c0,.08,0,.24,0,.56a.86.86,0,0,1,.79-.62v.27a.87.87,0,0,0-.79,1v1.3h-.23Z" transform="translate(-47.31 -29.38)"/><path d="M270.42,128.32h.43v-.78h.23v.78h.54v.23h-.54v1.63c0,.28.05.44.27.44a.91.91,0,0,0,.23,0v.22a.79.79,0,0,1-.28,0c-.29,0-.45-.16-.45-.56v-1.74h-.43Z" transform="translate(-47.31 -29.38)"/><path d="M273.64,130.34a3.93,3.93,0,0,0,0,.48h-.22a2.85,2.85,0,0,1,0-.39.79.79,0,0,1-1.5-.3c0-.55.39-.8,1.07-.8h.43v-.26a.59.59,0,0,0-1.16-.11H272a.73.73,0,0,1,.81-.7.71.71,0,0,1,.81.79Zm-.22-.8H273c-.5,0-.82.15-.82.58a.5.5,0,0,0,.53.53c.65,0,.74-.48.74-1Z" transform="translate(-47.31 -29.38)"/><path d="M274.39,127.13h.23v.49h-.23Zm0,1.19h.23v2.5h-.23Z" transform="translate(-47.31 -29.38)"/><path d="M275.36,129v-.63h.22a3.73,3.73,0,0,1,0,.47.76.76,0,0,1,.76-.53c.4,0,.76.25.76.94v1.62h-.23v-1.58c0-.45-.17-.74-.56-.74-.54,0-.73.5-.73,1v1.28h-.23Z" transform="translate(-47.31 -29.38)"/><path d="M277.86,129c0-.21,0-.45,0-.64h.22a3,3,0,0,1,0,.44.72.72,0,0,1,.68-.5.65.65,0,0,1,.66.49.79.79,0,0,1,.75-.49c.35,0,.71.22.71.91v1.65h-.23V129.2c0-.33-.11-.7-.53-.7s-.64.39-.64.88v1.44h-.22v-1.61c0-.37-.1-.71-.52-.71s-.66.43-.66.94v1.38h-.22Z" transform="translate(-47.31 -29.38)"/><path d="M281.67,129.6c0,.64.31,1,.74,1a.65.65,0,0,0,.66-.47h.23a.9.9,0,0,1-.9.71c-.69,0-1-.66-1-1.29s.33-1.33,1-1.33.92.66.92,1.13v.21Zm1.45-.22c0-.5-.25-.89-.7-.89s-.68.36-.73.89Z" transform="translate(-47.31 -29.38)"/><path d="M283.91,129c0-.22,0-.43,0-.63h.23c0,.08,0,.4,0,.47a.76.76,0,0,1,.76-.53c.4,0,.76.25.76.94v1.62h-.22v-1.58c0-.45-.17-.74-.57-.74s-.73.5-.73,1v1.28h-.22Z" transform="translate(-47.31 -29.38)"/><path d="M286,128.32h.43v-.78h.23v.78h.54v.23h-.54v1.63c0,.28.05.44.27.44a1.05,1.05,0,0,0,.24,0v.22a.88.88,0,0,1-.29,0c-.29,0-.45-.16-.45-.56v-1.74H286Z" transform="translate(-47.31 -29.38)"/><path d="M299.82,127.26v3.5h-.25v-3.5Z" transform="translate(-47.31 -29.38)"/><path d="M300.6,128.89v-.63h.22c0,.08,0,.4,0,.47a.75.75,0,0,1,.75-.53c.41,0,.77.25.77.94v1.62h-.23v-1.58c0-.45-.17-.74-.56-.74-.54,0-.73.5-.73,1v1.28h-.23Z" transform="translate(-47.31 -29.38)"/><path d="M303.15,130.76v-2.27h-.39v-.23h.39v-.36c0-.42.11-.88.62-.88a.72.72,0,0,1,.22,0v.24a.93.93,0,0,0-.24,0c-.27,0-.37.21-.37.64v.35h.5v.23h-.5v2.27Z" transform="translate(-47.31 -29.38)"/><path d="M306.08,129.5c0,.7-.35,1.32-1,1.32s-1-.56-1-1.31.36-1.31,1-1.31S306.08,128.72,306.08,129.5Zm-1.79,0c0,.59.29,1.07.78,1.07s.77-.44.77-1.07-.28-1.08-.78-1.08S304.29,128.91,304.29,129.51Z" transform="translate(-47.31 -29.38)"/><path d="M306.64,128.94v-.68h.22c0,.08,0,.24,0,.56a.86.86,0,0,1,.79-.62v.27a.87.87,0,0,0-.79,1v1.3h-.23Z" transform="translate(-47.31 -29.38)"/><path d="M308.06,128.9v-.64h.22a3,3,0,0,1,0,.44.72.72,0,0,1,.68-.5.65.65,0,0,1,.66.49.77.77,0,0,1,.74-.49c.35,0,.72.22.72.91v1.65h-.23v-1.62c0-.33-.11-.7-.53-.7s-.64.39-.64.88v1.44h-.23v-1.61c0-.37-.1-.71-.51-.71s-.66.43-.66.94v1.38h-.23Z" transform="translate(-47.31 -29.38)"/><path d="M313.37,130.28a2.57,2.57,0,0,0,0,.48h-.22a1.78,1.78,0,0,1,0-.39.75.75,0,0,1-.75.45.71.71,0,0,1-.75-.75c0-.55.38-.8,1.07-.8h.43V129c0-.25-.07-.58-.59-.58a.51.51,0,0,0-.58.47h-.22a.72.72,0,0,1,.81-.7.71.71,0,0,1,.81.79Zm-.23-.8h-.44c-.51,0-.82.15-.82.58a.5.5,0,0,0,.52.53c.65,0,.74-.48.74-1Z" transform="translate(-47.31 -29.38)"/><path d="M313.75,128.26h.42v-.78h.23v.78h.54v.23h-.54v1.63c0,.28.06.44.28.44a1,1,0,0,0,.23,0v.22a.82.82,0,0,1-.28,0c-.29,0-.46-.16-.46-.56v-1.74h-.42Z" transform="translate(-47.31 -29.38)"/><path d="M315.41,127.07h.22v.49h-.22Zm0,1.19h.22v2.5h-.22Z" transform="translate(-47.31 -29.38)"/><path d="M318.22,129.5c0,.7-.35,1.32-1,1.32s-1-.56-1-1.31.36-1.31,1-1.31S318.22,128.72,318.22,129.5Zm-1.78,0c0,.59.29,1.07.77,1.07s.77-.44.77-1.07-.27-1.08-.78-1.08S316.44,128.91,316.44,129.51Z" transform="translate(-47.31 -29.38)"/><path d="M318.79,128.89c0-.22,0-.43,0-.63H319a3.73,3.73,0,0,1,0,.47.76.76,0,0,1,.76-.53c.4,0,.76.25.76.94v1.62h-.23v-1.58c0-.45-.16-.74-.56-.74s-.73.5-.73,1v1.28h-.22Z" transform="translate(-47.31 -29.38)"/><path d="M333.71,129c0,1-.46,1.83-1.44,1.83s-1.42-.8-1.42-1.8.5-1.8,1.45-1.8S333.71,128,333.71,129Zm-2.6,0c0,.81.41,1.57,1.17,1.57s1.17-.74,1.17-1.57-.39-1.53-1.16-1.53S331.11,128.2,331.11,129Z" transform="translate(-47.31 -29.38)"/><path d="M334.11,128.26h.42v-.78h.23v.78h.54v.23h-.54v1.63c0,.28.06.44.27.44a1,1,0,0,0,.24,0v.22a.86.86,0,0,1-.28,0c-.29,0-.46-.16-.46-.56v-1.74h-.42Z" transform="translate(-47.31 -29.38)"/><path d="M336,127.07v1.61a.79.79,0,0,1,.75-.48c.32,0,.77.18.77,1v1.59h-.23v-1.54c0-.5-.2-.78-.58-.78s-.71.31-.71.92v1.4h-.23v-3.69Z" transform="translate(-47.31 -29.38)"/><path d="M338.29,129.54c0,.64.3,1,.74,1a.65.65,0,0,0,.66-.47h.23a.9.9,0,0,1-.9.71c-.69,0-1-.66-1-1.29s.32-1.33,1-1.33.92.66.92,1.13v.21Zm1.45-.22c0-.5-.25-.89-.7-.89s-.68.36-.73.89Z" transform="translate(-47.31 -29.38)"/><path d="M340.53,128.94c0-.42,0-.6,0-.68h.23v.56a.88.88,0,0,1,.79-.62v.27a.87.87,0,0,0-.79,1v1.3h-.22Z" transform="translate(-47.31 -29.38)"/><rect class="cls-18" x="210.66" y="95.39" width="31.57" height="9" rx="3.23"/></svg>